<svg width="1371" height="39" viewBox="0 0 1371 39" fill="none" xmlns="http://www.w3.org/2000/svg">
<g opacity="0.7">
<path fill-rule="evenodd" clip-rule="evenodd" d="M1218.01 0.225098V5.83604C1214.4 5.83604 1210.94 7.27567 1208.38 9.83822C1205.83 12.4008 1204.39 15.8763 1204.39 19.5003C1204.39 23.1243 1205.83 26.5999 1208.38 29.1625C1210.94 31.725 1214.4 33.1646 1218.01 33.1646V38.7756H1200.38V0.225098H1218.01ZM1245.47 9.26868H1241.53V28.3459H1245.47V9.26868ZM1248.85 17.956C1248.09 19.0966 1247.68 20.4383 1247.68 21.8108C1247.67 22.7211 1247.84 23.6247 1248.18 24.4686C1248.52 25.3125 1249.03 26.0797 1249.67 26.7253C1250.31 27.3709 1251.07 27.8818 1251.91 28.2281C1252.75 28.5744 1253.64 28.7491 1254.55 28.742C1255.92 28.7498 1257.26 28.35 1258.4 27.5932C1259.54 26.8364 1260.43 25.7566 1260.96 24.4908C1261.49 23.225 1261.63 21.8302 1261.37 20.4831C1261.11 19.1359 1260.45 17.8972 1259.49 16.9239C1258.53 15.9506 1257.3 15.2865 1255.95 15.0159C1254.61 14.7452 1253.22 14.8801 1251.96 15.4036C1250.69 15.927 1249.61 16.8153 1248.85 17.956ZM1257.04 20.1606C1257.37 20.6451 1257.56 21.2191 1257.58 21.8108H1257.55C1257.57 22.2133 1257.51 22.616 1257.37 22.9937C1257.23 23.3714 1257.02 23.716 1256.74 24.0059C1256.46 24.2958 1256.12 24.5249 1255.75 24.6788C1255.38 24.8326 1254.98 24.908 1254.58 24.9001C1253.99 24.8999 1253.41 24.7252 1252.92 24.3978C1252.43 24.0704 1252.04 23.6049 1251.82 23.0595C1251.59 22.5141 1251.52 21.913 1251.63 21.3313C1251.74 20.7497 1252.02 20.2133 1252.43 19.7894C1252.84 19.3654 1253.37 19.0727 1253.95 18.9477C1254.52 18.8228 1255.12 18.8712 1255.67 19.087C1256.22 19.3027 1256.7 19.6761 1257.04 20.1606ZM1277.04 15.2756V27.6989C1277.04 32.0821 1273.62 33.9436 1270.16 33.9436C1268.94 34.0441 1267.71 33.8008 1266.62 33.241C1265.53 32.6812 1264.62 31.8272 1263.99 30.775L1267.32 28.8475C1267.59 29.3932 1268.01 29.8435 1268.55 30.1383C1269.08 30.4332 1269.69 30.5586 1270.29 30.4978C1270.67 30.5454 1271.06 30.507 1271.43 30.3855C1271.8 30.264 1272.14 30.0623 1272.42 29.7949C1272.7 29.5275 1272.92 29.2009 1273.06 28.8386C1273.2 28.4762 1273.26 28.0871 1273.24 27.6989V26.4975C1272.78 27.0563 1272.19 27.5 1271.53 27.7934C1270.87 28.0867 1270.16 28.2216 1269.43 28.1874C1267.69 28.1874 1266.02 27.4919 1264.78 26.254C1263.55 25.016 1262.85 23.337 1262.85 21.5863C1262.85 19.8356 1263.55 18.1566 1264.78 16.9186C1266.02 15.6807 1267.69 14.9852 1269.43 14.9852C1270.16 14.951 1270.87 15.0859 1271.53 15.3792C1272.19 15.6726 1272.78 16.1163 1273.24 16.6751V15.3548L1277.04 15.2756ZM1273.24 21.5467C1273.26 20.9151 1273.1 20.29 1272.77 19.7518C1272.44 19.2137 1271.96 18.7871 1271.38 18.5269C1270.81 18.2667 1270.17 18.1849 1269.55 18.2918C1268.93 18.3987 1268.35 18.6896 1267.9 19.127C1267.44 19.5644 1267.13 20.1284 1266.99 20.7463C1266.86 21.3643 1266.92 22.008 1267.15 22.5947C1267.39 23.1814 1267.79 23.6843 1268.31 24.0387C1268.83 24.393 1269.45 24.5826 1270.08 24.5832C1270.49 24.6129 1270.9 24.5558 1271.29 24.4155C1271.68 24.2752 1272.03 24.0548 1272.33 23.7687C1272.63 23.4825 1272.86 23.1369 1273.02 22.7542C1273.17 22.3714 1273.25 21.9601 1273.24 21.5467ZM1280.43 17.9587C1279.67 19.0988 1279.26 20.4394 1279.26 21.8108C1279.25 22.7228 1279.42 23.6278 1279.77 24.4726C1280.11 25.3175 1280.62 26.0852 1281.26 26.7308C1281.9 27.3763 1282.66 27.8868 1283.51 28.2321C1284.35 28.5775 1285.25 28.7508 1286.16 28.742C1287.52 28.7446 1288.86 28.3403 1290 27.5803C1291.14 26.8202 1292.02 25.7387 1292.55 24.4724C1293.07 23.2061 1293.21 21.8121 1292.95 20.4667C1292.68 19.1213 1292.03 17.8851 1291.06 16.9144C1290.09 15.9437 1288.86 15.2823 1287.52 15.0138C1286.18 14.7453 1284.79 14.8818 1283.53 15.406C1282.27 15.9302 1281.19 16.8186 1280.43 17.9587ZM1288.61 20.1593C1288.95 20.644 1289.14 21.2185 1289.16 21.8108H1289.14C1289.17 22.2133 1289.11 22.616 1288.96 22.9937C1288.82 23.3714 1288.61 23.7159 1288.33 24.0059C1288.05 24.2958 1287.71 24.5249 1287.34 24.6787C1286.97 24.8326 1286.57 24.908 1286.17 24.9001C1285.58 24.9025 1285 24.73 1284.51 24.4042C1284.02 24.0784 1283.63 23.6138 1283.4 23.0686C1283.17 22.5234 1283.1 21.9219 1283.21 21.3394C1283.32 20.7569 1283.59 20.2194 1284.01 19.7941C1284.42 19.3689 1284.94 19.0748 1285.52 18.9488C1286.1 18.8228 1286.7 18.8704 1287.25 19.0858C1287.8 19.3011 1288.27 19.6745 1288.61 20.1593ZM1294.88 11.7771C1294.88 11.3123 1295.02 10.858 1295.28 10.4715C1295.53 10.0851 1295.9 9.78387 1296.33 9.60601C1296.76 9.42814 1297.23 9.38161 1297.68 9.47228C1298.13 9.56295 1298.55 9.78677 1298.88 10.1154C1299.21 10.4441 1299.43 10.8628 1299.52 11.3187C1299.61 11.7745 1299.56 12.247 1299.39 12.6764C1299.21 13.1058 1298.91 13.4728 1298.52 13.7311C1298.14 13.9893 1297.69 14.1271 1297.22 14.1271C1296.6 14.1203 1296.01 13.8705 1295.58 13.4312C1295.14 12.992 1294.89 12.3983 1294.88 11.7771ZM1295.26 15.2757H1299.21V28.3459H1295.26V15.2757ZM1315.73 24.3691C1316.02 23.5495 1316.15 22.68 1316.11 21.8108C1316.14 20.9448 1316.01 20.0796 1315.72 19.2646C1315.42 18.4495 1314.97 17.7007 1314.39 17.0607C1313.81 16.4208 1313.1 15.9023 1312.32 15.5349C1311.54 15.1674 1310.69 14.9582 1309.83 14.9192C1309.09 14.8675 1308.36 14.9832 1307.67 15.2576C1306.99 15.5319 1306.38 15.9579 1305.88 16.5035V15.2757H1301.93V33.6004H1305.88V27.1445C1306.38 27.6918 1306.99 28.1197 1307.67 28.3963C1308.36 28.6729 1309.09 28.791 1309.83 28.742C1310.7 28.7031 1311.55 28.4926 1312.33 28.1227C1313.12 27.7527 1313.82 27.2306 1314.4 26.5864C1314.99 25.9423 1315.44 25.1887 1315.73 24.3691ZM1311.6 20.1006C1311.95 20.6027 1312.14 21.1976 1312.16 21.8108C1312.19 22.2302 1312.13 22.6513 1311.99 23.0464C1311.84 23.4415 1311.62 23.8016 1311.33 24.1033C1311.03 24.405 1310.68 24.6413 1310.29 24.7969C1309.9 24.9524 1309.48 25.0236 1309.07 25.0057C1308.45 25.0081 1307.86 24.8294 1307.35 24.492C1306.83 24.1546 1306.44 23.6735 1306.2 23.1091C1305.96 22.5446 1305.89 21.9218 1306 21.3188C1306.11 20.7159 1306.4 20.1595 1306.83 19.7194C1307.25 19.2794 1307.8 18.9753 1308.39 18.8452C1308.99 18.7151 1309.61 18.7648 1310.18 18.9881C1310.75 19.2115 1311.24 19.5984 1311.6 20.1006ZM1328.12 24.4248C1328.12 27.4349 1325.49 28.7155 1322.7 28.7155C1321.56 28.8183 1320.42 28.5763 1319.42 28.0209C1318.42 27.4654 1317.61 26.6221 1317.09 25.5998L1320.49 23.6723C1320.62 24.1434 1320.91 24.5538 1321.31 24.835C1321.71 25.1162 1322.2 25.251 1322.68 25.2169C1323.62 25.2169 1324.09 24.9265 1324.09 24.3984C1324.09 23.8796 1323.26 23.6474 1322.19 23.3503C1320.3 22.8234 1317.68 22.0926 1317.68 19.1967C1317.68 16.345 1320.08 14.9192 1322.79 14.9192C1323.82 14.8729 1324.84 15.1074 1325.75 15.5979C1326.66 16.0884 1327.42 16.8165 1327.95 17.7049L1324.55 19.5004C1324.4 19.1598 1324.16 18.87 1323.85 18.6662C1323.54 18.4624 1323.17 18.3532 1322.8 18.3518C1322.12 18.3518 1321.71 18.6158 1321.71 19.0779C1321.71 19.617 1322.53 19.8359 1323.59 20.117C1325.48 20.6206 1328.12 21.3236 1328.12 24.4248ZM1342.42 28.3458V15.2756H1338.53V22.4708C1338.53 24.2663 1337.53 25.1113 1336.11 25.1113C1335.79 25.13 1335.48 25.0806 1335.19 24.9665C1334.9 24.8524 1334.64 24.6763 1334.42 24.4503C1334.2 24.2244 1334.04 23.954 1333.94 23.6578C1333.83 23.3616 1333.8 23.0467 1333.83 22.7349V15.2756H1329.88V23.329C1329.88 26.854 1332.13 28.7419 1334.76 28.7419C1335.47 28.7819 1336.17 28.6558 1336.81 28.3737C1337.46 28.0916 1338.03 27.6615 1338.47 27.118V28.3458H1342.42ZM1364.79 20.3189V28.3459H1360.84V20.6622C1360.84 19.3419 1360.22 18.5234 1358.97 18.5234C1357.72 18.5234 1356.93 19.4344 1356.93 20.979V28.3459H1352.99V20.6622C1352.99 19.3419 1352.37 18.5234 1351.12 18.5234C1349.87 18.5234 1349.08 19.4344 1349.08 20.979V28.3459H1345.13V15.2757H1349.08V16.4771C1349.49 15.9463 1350.02 15.5259 1350.63 15.254C1351.24 14.982 1351.91 14.8669 1352.58 14.9192C1353.25 14.8843 1353.91 15.0241 1354.51 15.325C1355.11 15.6259 1355.62 16.0775 1355.99 16.6355C1356.42 16.0525 1356.99 15.5893 1357.65 15.2892C1358.32 14.9891 1359.04 14.8618 1359.76 14.9192C1362.84 14.9192 1364.79 17.058 1364.79 20.3189ZM1218.01 5.83508V33.1637C1221.62 33.1637 1225.09 31.7241 1227.64 29.1615C1230.2 26.5989 1231.63 23.1234 1231.63 19.4994C1231.63 15.8754 1230.2 12.3998 1227.64 9.83726C1225.09 7.27471 1221.62 5.83508 1218.01 5.83508ZM1371 12.2914C1371 13.8953 1369.7 15.1954 1368.11 15.1954C1366.51 15.1954 1365.21 13.8953 1365.21 12.2914C1365.21 10.6876 1366.51 9.38745 1368.11 9.38745C1369.7 9.38745 1371 10.6876 1371 12.2914Z" fill="#394149"/>
<path fill-rule="evenodd" clip-rule="evenodd" d="M914.698 7.7356C911.503 10.2201 909.236 13.6966 908.257 17.6115H909.849C912.536 17.5721 915.167 18.3709 917.374 19.8955C917.501 19.9872 917.634 20.071 917.772 20.1463H917.958C918.095 20.071 918.228 19.9872 918.356 19.8955C920.582 18.4062 923.204 17.6107 925.887 17.6107C928.57 17.6107 931.191 18.4062 933.418 19.8955C933.545 19.9872 933.678 20.071 933.816 20.1463H934.002C934.139 20.071 934.272 19.9872 934.4 19.8955C936.606 18.3709 939.238 17.5721 941.924 17.6115H943.517C942.537 13.6966 940.27 10.2201 937.075 7.7356C933.88 5.25108 929.942 3.90137 925.887 3.90137C921.832 3.90137 917.893 5.25108 914.698 7.7356ZM941.924 24.9519C940.888 24.9246 939.875 25.2559 939.058 25.8893C937.545 26.9371 935.746 27.4987 933.902 27.4987C932.059 27.4987 930.259 26.9371 928.747 25.8893C927.93 25.254 926.916 24.9224 925.88 24.9519C924.845 24.9268 923.832 25.2579 923.014 25.8893C921.504 26.9377 919.706 27.4999 917.865 27.4999C916.023 27.4999 914.226 26.9377 912.716 25.8893C911.898 25.2559 910.885 24.9246 909.849 24.9519H907.713V20.714H909.916C911.763 20.6777 913.571 21.2433 915.065 22.3247C915.895 22.9337 916.9 23.2623 917.931 23.2623C918.963 23.2623 919.967 22.9337 920.798 22.3247C922.31 21.2769 924.11 20.7153 925.953 20.7153C927.797 20.7153 929.596 21.2769 931.109 22.3247C931.939 22.9337 932.944 23.2623 933.975 23.2623C935.007 23.2623 936.011 22.9337 936.842 22.3247C938.317 21.257 940.1 20.6921 941.924 20.714H944.061V24.9519H941.924ZM941.924 32.53C940.888 32.5027 939.875 32.834 939.058 33.4674C937.545 34.5152 935.746 35.0768 933.902 35.0768C932.059 35.0768 930.259 34.5152 928.747 33.4674C927.93 32.832 926.916 32.5005 925.88 32.53C924.845 32.5049 923.832 32.836 923.014 33.4674C921.504 34.5158 919.706 35.078 917.865 35.078C916.023 35.078 914.226 34.5158 912.716 33.4674C911.898 32.834 910.885 32.5027 909.849 32.53H907.713V28.2921H909.916C911.763 28.2558 913.571 28.8214 915.065 29.9028C915.895 30.5118 916.9 30.8403 917.931 30.8403C918.963 30.8403 919.967 30.5118 920.798 29.9028C922.31 28.855 924.11 28.2933 925.953 28.2933C927.797 28.2933 929.596 28.855 931.109 29.9028C931.939 30.5118 932.944 30.8403 933.975 30.8403C935.007 30.8403 936.011 30.5118 936.842 29.9028C938.317 28.8351 940.1 28.2701 941.924 28.2921H944.061V32.53H941.924ZM955.699 28.6228C956.345 29.0759 957.126 29.2991 957.915 29.2565C958.429 29.2508 958.939 29.1662 959.428 29.0057C959.477 29.0029 959.525 28.9896 959.569 28.9667C959.612 28.9438 959.65 28.9119 959.681 28.8731C959.711 28.8344 959.732 28.7896 959.744 28.7419C959.755 28.6941 959.756 28.6445 959.746 28.5964L959.547 26.9461C959.534 26.7085 959.388 26.6293 959.123 26.6293C958.932 26.6811 958.736 26.7034 958.539 26.6953C958.074 26.6953 957.849 26.4445 957.849 25.9428V14.6549C957.849 14.404 957.729 14.272 957.477 14.272H955.248C955.195 14.2656 955.143 14.2711 955.093 14.288C955.043 14.305 954.998 14.333 954.961 14.3699C954.924 14.4069 954.896 14.4517 954.879 14.5011C954.862 14.5505 954.856 14.6031 954.863 14.6549V26.8933C954.85 27.2275 954.92 27.5596 955.066 27.8609C955.212 28.1622 955.429 28.4237 955.699 28.6228ZM966.474 29.2684C967.928 29.2684 969.335 28.7647 970.455 27.8438V27.8306C971.417 26.8327 971.954 25.5035 971.954 24.1208C971.954 22.7382 971.417 21.409 970.455 20.411C969.333 19.4949 967.926 18.9943 966.474 18.9943C965.023 18.9943 963.616 19.4949 962.493 20.411C961.509 21.3999 960.956 22.7355 960.956 24.1274C960.956 25.5193 961.509 26.855 962.493 27.8438C963.613 28.7647 965.021 29.2684 966.474 29.2684ZM966.488 26.8291C965.786 26.8291 965.11 26.5696 964.59 26.1012C964.119 25.563 963.86 24.8737 963.86 24.1604C963.86 23.4471 964.119 22.7579 964.59 22.2197C965.11 21.7512 965.786 21.4917 966.488 21.4917C967.189 21.4917 967.865 21.7512 968.385 22.2197C968.856 22.7579 969.115 23.4471 969.115 24.1604C969.115 24.8737 968.856 25.563 968.385 26.1012C967.865 26.5696 967.189 26.8291 966.488 26.8291ZM984.23 19.3284C984.482 19.3284 984.602 19.4604 984.602 19.7113V29.1773C984.625 29.8162 984.505 30.4522 984.25 31.0391C983.995 31.626 983.612 32.149 983.129 32.5702C982.056 33.4805 980.676 33.9522 979.267 33.8905C977.995 33.935 976.739 33.5893 975.671 32.9003C975.215 32.6022 974.825 32.214 974.526 31.7598C974.227 31.3056 974.025 30.795 973.932 30.2599C973.932 29.9958 973.932 29.877 974.291 29.877H976.52C976.615 29.8802 976.707 29.9106 976.784 29.9644C976.862 30.0183 976.922 30.0934 976.958 30.1806C977.103 30.5816 977.391 30.9154 977.768 31.118C978.227 31.3536 978.737 31.4716 979.254 31.4613C979.565 31.4782 979.877 31.4333 980.171 31.329C980.465 31.2247 980.735 31.0632 980.966 30.8539C981.176 30.635 981.34 30.3759 981.447 30.0923C981.554 29.8087 981.603 29.5064 981.589 29.2037V28.3719C980.791 28.956 979.82 29.2581 978.829 29.2301C978.136 29.2552 977.445 29.1406 976.797 28.8933C976.149 28.646 975.559 28.2711 975.06 27.791C974.104 26.8063 973.569 25.4904 973.569 24.1208C973.569 22.7513 974.104 21.4353 975.06 20.4506C975.561 19.9748 976.153 19.6035 976.8 19.3586C977.447 19.1137 978.137 19.0002 978.829 19.0248C979.848 18.998 980.846 19.3195 981.656 19.9357V19.7245C981.65 19.6739 981.655 19.6226 981.671 19.5743C981.688 19.526 981.715 19.4819 981.75 19.4452C981.786 19.4086 981.829 19.3803 981.877 19.3623C981.925 19.3444 981.976 19.3373 982.027 19.3416L984.23 19.3284ZM979.081 26.8801C979.423 26.8906 979.763 26.8263 980.077 26.6917C980.392 26.5571 980.672 26.3555 980.899 26.1012C981.341 25.5343 981.58 24.8377 981.58 24.1208C981.58 23.4039 981.341 22.7073 980.899 22.1405C980.673 21.8896 980.394 21.691 980.082 21.5587C979.77 21.4264 979.433 21.3636 979.095 21.3748C978.749 21.3639 978.405 21.428 978.086 21.5625C977.768 21.697 977.482 21.8987 977.25 22.1537C976.761 22.6959 976.504 23.4063 976.533 24.134C976.509 24.8546 976.761 25.5575 977.237 26.1012C977.47 26.3554 977.755 26.5567 978.073 26.6911C978.392 26.8256 978.736 26.89 979.081 26.8801ZM992.073 29.2606C993.525 29.2606 994.932 28.76 996.054 27.8439V27.8307C997.016 26.8327 997.553 25.5035 997.553 24.1209C997.553 22.7382 997.016 21.409 996.054 20.411C994.931 19.4973 993.524 18.9982 992.073 18.9982C990.622 18.9982 989.215 19.4973 988.092 20.411C987.129 21.4112 986.592 22.7426 986.592 24.1275C986.592 25.5123 987.129 26.8437 988.092 27.8439C989.214 28.76 990.621 29.2606 992.073 29.2606ZM991.058 26.6548C990.73 26.5301 990.43 26.342 990.175 26.1012C989.713 25.5594 989.458 24.8715 989.458 24.1605C989.458 23.4494 989.713 22.7616 990.175 22.2197C990.43 21.979 990.73 21.7908 991.058 21.6662C991.386 21.5415 991.735 21.4829 992.086 21.4936C992.435 21.4846 992.782 21.5441 993.108 21.6687C993.434 21.7933 993.731 21.9806 993.984 22.2197C994.447 22.7616 994.701 23.4494 994.701 24.1605C994.701 24.8715 994.447 25.5594 993.984 26.1012C993.731 26.3404 993.434 26.5276 993.108 26.6522C992.782 26.7768 992.435 26.8363 992.086 26.8273C991.735 26.8381 991.386 26.7794 991.058 26.6548ZM1002.34 17.0841C1001.99 17.3896 1001.54 17.558 1001.08 17.558C1000.61 17.558 1000.16 17.3896 999.81 17.0841C999.651 16.9348 999.524 16.7547 999.437 16.5549C999.351 16.3552 999.306 16.1399 999.306 15.9223C999.306 15.7048 999.351 15.4895 999.437 15.2897C999.524 15.0899 999.651 14.9099 999.81 14.7605C1000.16 14.4627 1000.61 14.2993 1001.08 14.2993C1001.54 14.2993 1001.99 14.4627 1002.34 14.7605C1002.5 14.9099 1002.63 15.0899 1002.72 15.2897C1002.8 15.4895 1002.85 15.7048 1002.85 15.9223C1002.85 16.1399 1002.8 16.3552 1002.72 16.5549C1002.63 16.7547 1002.5 16.9348 1002.34 17.0841ZM1002.62 29.2566C1001.83 29.295 1001.05 29.0722 1000.41 28.6229C1000.14 28.4208 999.928 28.1584 999.784 27.8575C999.641 27.5566 999.573 27.226 999.584 26.8934V19.7114C999.578 19.6595 999.583 19.607 999.6 19.5576C999.617 19.5082 999.645 19.4634 999.683 19.4264C999.72 19.3895 999.765 19.3615 999.814 19.3445C999.864 19.3276 999.917 19.3221 999.969 19.3285H1002.2C1002.45 19.3285 1002.57 19.4605 1002.57 19.7114V25.9428C1002.57 26.4445 1002.8 26.6953 1003.25 26.6953C1003.45 26.7025 1003.65 26.6803 1003.84 26.6293C1004.11 26.6293 1004.26 26.7085 1004.27 26.9462L1004.47 28.5965C1004.48 28.6446 1004.48 28.6942 1004.46 28.7419C1004.45 28.7896 1004.43 28.8344 1004.4 28.8732C1004.37 28.912 1004.33 28.9439 1004.29 28.9667C1004.25 28.9896 1004.2 29.0029 1004.15 29.0057C1003.66 29.1671 1003.14 29.2517 1002.62 29.2566ZM1014.71 19.3413C1014.06 19.0963 1013.37 18.9842 1012.67 19.0116C1012.06 18.9984 1011.46 19.1087 1010.89 19.3357C1010.33 19.5627 1009.82 19.9016 1009.39 20.3318C1009.17 19.8988 1008.82 19.5419 1008.39 19.3067C1007.96 19.0714 1007.48 18.9687 1006.99 19.0116C1006.5 19.0027 1006.01 19.0832 1005.56 19.2492C1005.46 19.2762 1005.38 19.3341 1005.33 19.4134C1005.27 19.4927 1005.24 19.5885 1005.25 19.6849V21.2428C1005.25 21.454 1005.4 21.5596 1005.69 21.5596H1006.13C1006.23 21.5441 1006.34 21.5535 1006.44 21.5872C1006.55 21.6208 1006.64 21.6777 1006.71 21.7534C1006.79 21.8291 1006.85 21.9214 1006.88 22.023C1006.92 22.1246 1006.93 22.2327 1006.91 22.3385V33.1644C1006.9 33.215 1006.9 33.2671 1006.92 33.3163C1006.93 33.3655 1006.96 33.4102 1007 33.4466C1007.03 33.483 1007.08 33.51 1007.13 33.5252C1007.18 33.5405 1007.23 33.5435 1007.28 33.534H1009.51C1009.76 33.534 1009.9 33.4152 1009.9 33.1644V28.3984C1010.7 28.9772 1011.67 29.2785 1012.67 29.2565C1013.37 29.2844 1014.06 29.1713 1014.71 28.9239C1015.37 28.6766 1015.96 28.3002 1016.46 27.8175C1017.4 26.8155 1017.92 25.4969 1017.92 24.1274C1017.92 22.758 1017.4 21.4394 1016.46 20.4374C1015.96 19.959 1015.36 19.5862 1014.71 19.3413ZM1011.43 26.6767C1011.12 26.543 1010.84 26.3472 1010.6 26.1012C1010.12 25.5387 1009.87 24.8182 1009.9 24.0812C1009.86 23.3437 1010.12 22.6218 1010.6 22.0613C1010.84 21.8153 1011.12 21.6195 1011.43 21.4857C1011.75 21.352 1012.09 21.283 1012.43 21.283C1012.77 21.283 1013.11 21.352 1013.43 21.4857C1013.74 21.6195 1014.02 21.8153 1014.26 22.0613C1014.76 22.6121 1015.03 23.3384 1014.99 24.0812C1015.02 24.8234 1014.76 25.5481 1014.26 26.1012C1014.02 26.3472 1013.74 26.543 1013.43 26.6767C1013.11 26.8105 1012.77 26.8795 1012.43 26.8795C1012.09 26.8795 1011.75 26.8105 1011.43 26.6767ZM1024.19 29.2565C1023 29.3052 1021.81 29.0217 1020.78 28.4379C1020.36 28.1884 1020.01 27.8487 1019.74 27.4442C1019.47 27.0397 1019.3 26.5806 1019.24 26.1011C1019.24 25.8371 1019.33 25.7051 1019.62 25.7051H1021.57C1021.67 25.7087 1021.76 25.7377 1021.83 25.7889C1021.91 25.8402 1021.97 25.9117 1022.01 25.9955C1022.29 26.7084 1023.02 27.0649 1024.19 27.0649C1024.59 27.0834 1025 27.0018 1025.37 26.8273C1025.5 26.7702 1025.6 26.6799 1025.68 26.5659C1025.76 26.452 1025.81 26.3187 1025.82 26.1804C1025.82 25.8371 1025.61 25.5995 1025.18 25.441C1024.68 25.2742 1024.16 25.1635 1023.63 25.111C1023 25.0405 1022.38 24.9303 1021.77 24.7809C1021.18 24.647 1020.64 24.3389 1020.22 23.8964C1019.97 23.5956 1019.79 23.2478 1019.69 22.8745C1019.58 22.5012 1019.56 22.1105 1019.61 21.7266C1019.66 21.3428 1019.8 20.974 1020 20.6431C1020.2 20.3123 1020.47 20.0266 1020.79 19.8037C1021.75 19.1975 1022.87 18.9022 1024 18.9587C1025.1 18.9218 1026.18 19.1917 1027.13 19.7377C1027.52 19.9534 1027.85 20.2515 1028.1 20.61C1028.35 20.9686 1028.52 21.3787 1028.59 21.8104C1028.59 22.0745 1028.47 22.2065 1028.23 22.2065H1026.27C1026.19 22.2114 1026.11 22.1913 1026.03 22.1489C1025.96 22.1065 1025.91 22.0437 1025.87 21.9688C1025.74 21.6561 1025.49 21.4056 1025.18 21.2691C1024.83 21.0861 1024.44 20.9952 1024.04 21.0051C1023.65 20.984 1023.26 21.0612 1022.91 21.2295C1022.79 21.277 1022.68 21.3602 1022.61 21.4684C1022.53 21.5767 1022.49 21.705 1022.49 21.8368C1022.5 22.0174 1022.56 22.1904 1022.68 22.3306C1022.79 22.4708 1022.95 22.5708 1023.13 22.6158C1023.64 22.8068 1024.17 22.9397 1024.7 23.0118C1025.33 23.0931 1025.94 23.2077 1026.55 23.3551C1027.14 23.489 1027.69 23.7971 1028.1 24.2396C1028.33 24.4834 1028.5 24.7688 1028.61 25.0792C1028.72 25.3897 1028.77 25.7191 1028.75 26.0483C1028.76 26.5047 1028.66 26.9562 1028.44 27.3589C1028.22 27.7615 1027.91 28.1014 1027.52 28.3455C1026.53 28.9788 1025.36 29.2965 1024.19 29.2565ZM1042.77 28.7373C1042.78 28.6912 1042.79 28.6433 1042.78 28.5964L1042.62 26.9462C1042.62 26.8944 1042.6 26.8437 1042.58 26.798C1042.56 26.7523 1042.52 26.7127 1042.48 26.6822C1042.44 26.6517 1042.39 26.6311 1042.34 26.622C1042.29 26.6128 1042.23 26.6153 1042.18 26.6293C1041.98 26.681 1041.78 26.7032 1041.57 26.6953C1041.13 26.6953 1040.91 26.4445 1040.91 25.9296V19.7114C1040.91 19.4605 1040.79 19.3285 1040.54 19.3285H1038.28C1038.03 19.3285 1037.91 19.4605 1037.91 19.7114V24.5698C1037.92 24.8583 1037.88 25.1467 1037.77 25.4169C1037.67 25.6871 1037.51 25.9335 1037.31 26.1408C1037.1 26.3375 1036.85 26.4902 1036.57 26.5899C1036.3 26.6896 1036.01 26.7344 1035.72 26.7217C1035.44 26.7328 1035.15 26.6831 1034.89 26.576C1034.63 26.469 1034.39 26.3071 1034.19 26.1012C1033.8 25.6518 1033.6 25.0711 1033.62 24.4774V19.7114C1033.62 19.4605 1033.5 19.3285 1033.25 19.3285H1031.02C1030.77 19.3285 1030.65 19.4605 1030.65 19.7114V24.8734C1030.62 25.4555 1030.71 26.0374 1030.91 26.5841C1031.12 27.1308 1031.43 27.6312 1031.83 28.0552C1032.24 28.4598 1032.72 28.7757 1033.26 28.9826C1033.79 29.1895 1034.36 29.2828 1034.94 29.2566C1036.17 29.3211 1037.38 28.9097 1038.32 28.108C1038.63 28.5105 1039.03 28.8277 1039.5 29.0289C1039.96 29.2301 1040.47 29.3085 1040.97 29.2566C1041.48 29.2476 1041.99 29.1631 1042.47 29.0057C1042.52 28.9993 1042.57 28.9835 1042.61 28.9593C1042.65 28.9352 1042.68 28.9031 1042.71 28.8649C1042.74 28.8268 1042.76 28.7834 1042.77 28.7373ZM1063.87 28.5964C1063.88 28.6437 1063.88 28.693 1063.87 28.7407C1063.86 28.7885 1063.84 28.8336 1063.81 28.8727C1063.78 28.9118 1063.74 28.944 1063.7 28.967C1063.66 28.99 1063.61 29.0032 1063.56 29.0057C1063.07 29.1653 1062.55 29.2498 1062.03 29.2565C1061.25 29.297 1060.47 29.074 1059.82 28.6228C1059.54 28.4295 1059.31 28.1706 1059.16 27.8689C1059 27.5672 1058.92 27.2321 1058.93 26.8933V23.7908C1058.96 23.1988 1058.76 22.6183 1058.37 22.1669C1058.19 21.9606 1057.96 21.7979 1057.7 21.6906C1057.44 21.5833 1057.16 21.534 1056.89 21.5464C1056.63 21.537 1056.39 21.5844 1056.16 21.685C1055.93 21.7856 1055.72 21.9369 1055.56 22.1273C1055.21 22.5697 1055.03 23.1225 1055.05 23.6852V28.5568C1055.05 28.8076 1054.94 28.9397 1054.68 28.9397H1052.44C1052.39 28.9461 1052.34 28.9406 1052.29 28.9236C1052.24 28.9067 1052.19 28.8786 1052.15 28.8417C1052.12 28.8048 1052.09 28.76 1052.07 28.7106C1052.05 28.6612 1052.05 28.6086 1052.06 28.5568V23.7908C1052.08 23.2052 1051.9 22.6289 1051.54 22.1669C1051.38 21.9729 1051.17 21.8167 1050.94 21.7094C1050.71 21.6022 1050.46 21.5465 1050.21 21.5464C1049.94 21.5355 1049.67 21.5817 1049.42 21.6818C1049.17 21.7819 1048.94 21.9337 1048.75 22.1273C1048.37 22.5556 1048.18 23.115 1048.21 23.6852V28.5568C1048.21 28.6086 1048.21 28.6612 1048.19 28.7106C1048.17 28.76 1048.15 28.8048 1048.11 28.8417C1048.07 28.8786 1048.03 28.9067 1047.98 28.9236C1047.93 28.9406 1047.87 28.9461 1047.82 28.9397H1045.66C1045.41 28.9397 1045.29 28.8076 1045.29 28.5568V22.3385C1045.3 22.2327 1045.29 22.1246 1045.26 22.023C1045.23 21.9214 1045.17 21.8291 1045.09 21.7534C1045.02 21.6777 1044.92 21.6208 1044.82 21.5872C1044.72 21.5535 1044.61 21.5441 1044.5 21.5596H1044.07C1043.77 21.5596 1043.63 21.454 1043.63 21.2428V19.6849C1043.62 19.5885 1043.65 19.4927 1043.7 19.4134C1043.76 19.3341 1043.84 19.2762 1043.93 19.2492C1044.39 19.0832 1044.88 19.0027 1045.37 19.0116C1045.84 18.9719 1046.31 19.0648 1046.72 19.2797C1047.14 19.4946 1047.49 19.8227 1047.73 20.2262C1048.18 19.804 1048.71 19.4783 1049.29 19.2693C1049.87 19.0603 1050.48 18.9726 1051.1 19.0116C1051.7 18.9825 1052.29 19.0941 1052.84 19.3373C1053.39 19.5804 1053.87 19.9483 1054.25 20.411C1054.68 19.9362 1055.22 19.5643 1055.83 19.3223C1056.43 19.0802 1057.07 18.9741 1057.72 19.0116C1058.3 18.9846 1058.88 19.0775 1059.42 19.2843C1059.96 19.491 1060.45 19.8073 1060.87 20.213C1061.27 20.6361 1061.58 21.1363 1061.79 21.6832C1061.99 22.2302 1062.08 22.8124 1062.05 23.3947V25.9428C1062.05 26.4444 1062.27 26.6953 1062.7 26.6953C1062.9 26.7048 1063.11 26.6826 1063.31 26.6293C1063.58 26.6293 1063.73 26.7349 1063.75 26.9461L1063.87 28.5964Z" fill="#394149"/>
<path fill-rule="evenodd" clip-rule="evenodd" d="M614.831 33.7322V24.1869C614.415 24.5008 613.902 24.6638 613.379 24.649C612.899 24.6373 612.434 24.4807 612.046 24.2002V33.7322C612.046 34.0981 612.193 34.449 612.454 34.7077C612.715 34.9664 613.069 35.1118 613.439 35.1118C613.808 35.1118 614.162 34.9664 614.424 34.7077C614.685 34.449 614.831 34.0981 614.831 33.7322ZM625.75 21.8144C626 21.5668 626.339 21.4277 626.692 21.4277C626.883 21.4103 627.075 21.4339 627.255 21.4967C627.436 21.5594 627.601 21.66 627.739 21.7916C627.876 21.9231 627.984 22.0825 628.054 22.2589C628.124 22.4353 628.155 22.6246 628.145 22.8139V24.4114C628.145 24.7773 627.998 25.1282 627.737 25.3869C627.476 25.6457 627.122 25.791 626.752 25.791C626.383 25.791 626.029 25.6457 625.767 25.3869C625.506 25.1282 625.36 24.7773 625.36 24.4114V22.7479C625.36 22.3978 625.5 22.062 625.75 21.8144ZM607.688 27.3555C608.077 27.6338 608.541 27.7901 609.021 27.8044C609.538 27.8343 610.052 27.7002 610.487 27.4215V36.9271C610.487 37.2947 610.34 37.6473 610.077 37.9073C609.815 38.1673 609.459 38.3133 609.088 38.3133C608.717 38.3133 608.361 38.1673 608.098 37.9073C607.836 37.6473 607.688 37.2947 607.688 36.9271V27.3555ZM621.817 18.6437C621.987 18.5814 622.167 18.5538 622.348 18.5628L622.281 18.5892C622.473 18.5698 622.666 18.5918 622.848 18.6537C623.031 18.7156 623.197 18.8159 623.337 18.9476C623.476 19.0794 623.585 19.2395 623.656 19.4169C623.726 19.5944 623.758 19.7849 623.747 19.9754V27.2367C623.747 27.6043 623.6 27.9569 623.337 28.2169C623.075 28.4768 622.719 28.6229 622.348 28.6229C621.977 28.6229 621.621 28.4768 621.358 28.2169C621.096 27.9569 620.948 27.6043 620.948 27.2367V19.883C620.948 19.704 620.985 19.5267 621.056 19.3621C621.127 19.1974 621.231 19.0488 621.362 18.9253C621.493 18.8018 621.648 18.706 621.817 18.6437ZM616.524 20.9392C616.933 21.2279 617.421 21.3847 617.923 21.3881L617.857 21.4145C618.384 21.4271 618.9 21.2644 619.323 20.9524V30.5372C619.323 30.9049 619.175 31.2575 618.913 31.5174C618.65 31.7774 618.294 31.9234 617.923 31.9234C617.552 31.9234 617.196 31.7774 616.934 31.5174C616.671 31.2575 616.524 30.9049 616.524 30.5372V20.9392ZM605.996 1.928V28.7417C605.996 29.0708 605.864 29.3865 605.629 29.6192C605.394 29.852 605.075 29.9827 604.743 29.9827H604.45C604.118 29.9827 603.799 29.852 603.564 29.6192C603.329 29.3865 603.197 29.0708 603.197 28.7417V1.928C603.201 1.60116 603.334 1.28889 603.569 1.059C603.803 0.829116 604.12 0.700177 604.45 0.700195H604.743C605.073 0.700177 605.39 0.829116 605.624 1.059C605.859 1.28889 605.992 1.60116 605.996 1.928ZM608.874 26.7878H609.168V26.8142C609.5 26.8142 609.818 26.6834 610.053 26.4507C610.288 26.218 610.42 25.9023 610.42 25.5732V5.12294C610.417 4.7961 610.283 4.48382 610.049 4.25394C609.814 4.02405 609.498 3.89512 609.168 3.89514H608.874C608.544 3.89512 608.228 4.02405 607.993 4.25394C607.759 4.48382 607.625 4.7961 607.622 5.12294V25.5468C607.622 25.8759 607.754 26.1916 607.989 26.4243C608.224 26.657 608.542 26.7878 608.874 26.7878ZM613.272 23.6457H613.579C613.907 23.6457 614.223 23.5163 614.455 23.286C614.688 23.0558 614.818 22.7435 614.818 22.4178V8.29147C614.818 7.96461 614.688 7.65094 614.456 7.41858C614.224 7.18623 613.909 7.05394 613.579 7.05047H613.272C613.108 7.05046 612.946 7.08264 612.795 7.14517C612.644 7.2077 612.506 7.29932 612.391 7.41474C612.276 7.53015 612.185 7.66706 612.123 7.81756C612.062 7.96805 612.031 8.12913 612.033 8.29147V22.4178C612.033 22.7435 612.163 23.0558 612.396 23.286C612.628 23.5163 612.944 23.6457 613.272 23.6457ZM617.71 20.4111H617.99H618.003C618.169 20.4111 618.333 20.3786 618.486 20.3154C618.639 20.2522 618.777 20.1596 618.894 20.043C619.01 19.9263 619.102 19.788 619.164 19.6359C619.227 19.4838 619.258 19.321 619.256 19.1569V11.4996C619.256 11.1705 619.124 10.8548 618.889 10.6221C618.654 10.3894 618.335 10.2586 618.003 10.2586H617.71C617.539 10.2583 617.369 10.2928 617.211 10.36C617.054 10.4273 616.912 10.5259 616.795 10.6496C616.677 10.7734 616.587 10.9197 616.529 11.0796C616.471 11.2394 616.446 11.4093 616.457 11.5788V19.1833C616.461 19.5101 616.594 19.8224 616.829 20.0523C617.063 20.2822 617.38 20.4111 617.71 20.4111ZM622.121 17.5726H622.414H622.428C622.758 17.5692 623.073 17.4369 623.305 17.2045C623.537 16.9722 623.667 16.6585 623.667 16.3316V14.3645C623.664 14.0377 623.53 13.7254 623.295 13.4955C623.061 13.2656 622.744 13.1367 622.414 13.1367H622.121C621.791 13.1367 621.475 13.2656 621.24 13.4955C621.005 13.7254 620.872 14.0377 620.868 14.3645V16.3316C620.868 16.6608 621 16.9764 621.235 17.2092C621.47 17.4419 621.789 17.5726 622.121 17.5726ZM676.507 19.8435C677.027 19.8435 677.147 20.0152 677.147 20.4772V22.9857C677.161 23.5765 677.042 24.163 676.797 24.7021C676.553 25.2413 676.19 25.7194 675.734 26.1014C674.604 26.9932 673.178 27.4357 671.736 27.3424C668.285 27.3424 666.406 25.5073 666.406 22.4576V18.3649C666.406 15.3548 668.351 13.5065 671.736 13.5065C674.402 13.5065 676.134 14.5494 676.867 16.6354C676.908 16.7138 676.93 16.8005 676.931 16.8888C676.933 16.9771 676.913 17.0644 676.874 17.1439C676.835 17.2233 676.778 17.2927 676.708 17.3466C676.637 17.4004 676.555 17.4371 676.467 17.4539L675.428 17.8104C674.975 17.9688 674.788 17.8764 674.628 17.4143C674.407 16.8504 674.003 16.3755 673.48 16.0647C672.956 15.7538 672.342 15.6248 671.736 15.698C669.777 15.698 668.711 16.6354 668.711 18.3385V22.5368C668.711 24.2663 669.791 25.1772 671.736 25.1772C673.682 25.1772 674.881 24.2927 674.881 22.9989V22.0219H671.99C671.51 22.0219 671.337 21.8371 671.337 21.375V20.4772C671.337 20.0152 671.51 19.8435 671.99 19.8435H676.507ZM655.305 13.5592C651.92 13.5592 649.974 15.3943 649.974 18.444V22.5103C649.974 25.56 651.933 27.3951 655.305 27.3951C658.676 27.3951 660.635 25.56 660.635 22.5103V18.444C660.635 15.3943 658.689 13.5592 655.305 13.5592ZM655.371 15.8036C657.317 15.8036 658.396 16.7277 658.396 18.444V22.5367C658.396 24.2266 657.317 25.1772 655.371 25.1772C653.425 25.1772 652.359 24.2662 652.359 22.5367V18.444C652.359 16.7409 653.425 15.8036 655.371 15.8036ZM639.179 14.4703C639.179 14.0082 639.019 13.8365 638.54 13.8365H637.46C636.994 13.8365 636.807 14.0082 636.807 14.4703V26.4843C636.807 26.9463 636.994 27.118 637.46 27.118H644.603C645.07 27.118 645.243 26.9463 645.243 26.4843V25.5601C645.243 25.098 645.07 24.9264 644.603 24.9264H639.179V14.4703ZM687.982 13.5592C684.597 13.5592 682.651 15.3943 682.651 18.444V22.5103C682.651 25.56 684.61 27.3951 687.982 27.3951C691.353 27.3951 693.312 25.56 693.312 22.5103V18.444C693.312 15.3943 691.366 13.5592 687.982 13.5592ZM688.048 15.8036C689.981 15.8036 691.06 16.7277 691.06 18.444V22.5367C691.06 24.2266 689.994 25.1772 688.048 25.1772C686.102 25.1772 685.023 24.2662 685.023 22.5367V18.444C685.023 16.7409 686.116 15.8036 688.048 15.8036ZM699.589 14.2194C699.589 13.929 699.682 13.8365 699.976 13.8365H700.589C700.882 13.8365 700.949 13.929 700.949 14.2194V26.7351C700.949 27.0256 700.949 27.118 700.589 27.118H699.976C699.682 27.118 699.589 27.0256 699.589 26.7351V14.2194ZM716.048 15.0507C715.263 14.2733 714.199 13.8365 713.089 13.8365H708.118C707.838 13.8365 707.732 13.929 707.732 14.2194V26.7351C707.732 27.0256 707.838 27.118 708.118 27.118H708.744C709.024 27.118 709.091 27.0256 709.091 26.7351V22.1275H713.089C714.199 22.1275 715.263 21.6908 716.048 20.9133C716.833 20.1359 717.274 19.0815 717.274 17.982C717.274 16.8826 716.833 15.8282 716.048 15.0507ZM714.081 20.6014C713.728 20.7461 713.351 20.8205 712.969 20.8205H708.971V15.0644H712.969C713.351 15.0644 713.728 15.1388 714.081 15.2834C714.433 15.4281 714.754 15.6401 715.023 15.9073C715.293 16.1746 715.507 16.4919 715.653 16.841C715.799 17.1902 715.874 17.5645 715.874 17.9424C715.874 18.3204 715.799 18.6946 715.653 19.0438C715.507 19.393 715.293 19.7103 715.023 19.9775C714.754 20.2448 714.433 20.4568 714.081 20.6014ZM727.682 13.5725C728.711 13.46 729.749 13.6793 730.642 14.1978C731.535 14.7163 732.235 15.5063 732.639 16.4506C732.746 16.6618 732.639 16.8334 732.426 16.939L731.84 17.2031C731.6 17.2955 731.506 17.2823 731.36 17.0315C731.058 16.3307 730.539 15.7432 729.878 15.3539C729.216 14.9647 728.447 14.7939 727.682 14.8663C725.429 14.8663 724.203 15.7508 724.203 17.3351C724.19 17.8193 724.354 18.2918 724.666 18.6655C724.977 19.0392 725.414 19.2888 725.896 19.3683C726.613 19.5998 727.356 19.7417 728.108 19.7907C729.019 19.8388 729.917 20.0213 730.773 20.332C731.43 20.5378 731.995 20.9611 732.374 21.5309C732.752 22.1007 732.921 22.7822 732.852 23.4609C732.852 25.9298 731.04 27.4216 727.708 27.4216C726.616 27.5455 725.513 27.2946 724.584 26.7108C723.655 26.1271 722.957 25.2457 722.604 24.2135C722.581 24.1664 722.568 24.1148 722.567 24.0623C722.566 24.0098 722.577 23.9577 722.598 23.9098C722.62 23.8618 722.652 23.8192 722.692 23.785C722.732 23.7508 722.78 23.7258 722.831 23.7118L723.417 23.5005C723.463 23.4819 723.513 23.4729 723.563 23.4742C723.613 23.4755 723.662 23.4871 723.707 23.5082C723.752 23.5293 723.792 23.5595 723.825 23.5968C723.858 23.6341 723.882 23.6778 723.897 23.725C724.195 24.4708 724.725 25.1032 725.41 25.5305C726.096 25.9578 726.901 26.1577 727.708 26.1014C730.227 26.1014 731.466 25.23 731.466 23.4609C731.49 22.9959 731.346 22.5377 731.061 22.1678C730.775 21.798 730.366 21.5404 729.907 21.441C729.218 21.2372 728.507 21.1132 727.788 21.0713L726.349 20.8865C725.899 20.7918 725.454 20.6728 725.016 20.53C724.584 20.4008 724.182 20.1901 723.83 19.9095C723.477 19.5924 723.198 19.2021 723.014 18.7663C722.83 18.3306 722.744 17.86 722.764 17.3879C722.857 15.0775 724.603 13.5725 727.682 13.5725ZM741.194 25.0547C740.506 24.4135 740.092 23.5364 740.036 22.6028V14.2194C740.036 13.929 739.942 13.8365 739.662 13.8365H739.036C738.756 13.8365 738.663 13.929 738.663 14.2194V22.5896C738.663 25.5865 740.449 27.3952 743.74 27.3952C747.032 27.3952 748.818 25.5865 748.818 22.5896V14.2194C748.818 13.929 748.725 13.8365 748.431 13.8365H747.818C747.525 13.8365 747.432 13.929 747.432 14.2194V22.6028C747.375 23.5364 746.961 24.4135 746.274 25.0547C745.586 25.6959 744.678 26.053 743.734 26.053C742.79 26.053 741.881 25.6959 741.194 25.0547ZM767.209 13.8365C767.502 13.8365 767.595 13.9289 767.595 14.2194V26.7351C767.595 27.0255 767.502 27.1179 767.209 27.1179H766.649C766.369 27.1179 766.276 27.0255 766.276 26.7351V19.1174C766.275 18.009 766.351 16.9019 766.502 15.8036H766.422C766.006 16.8079 765.521 17.7828 764.97 18.7213L762.104 23.725C762.069 23.8118 762.009 23.886 761.93 23.9379C761.852 23.9897 761.759 24.0168 761.665 24.0154H761.291C761.196 24.0159 761.102 23.9886 761.021 23.9371C760.941 23.8855 760.877 23.8118 760.838 23.725L757.933 18.6685C757.417 17.7434 756.972 16.7813 756.601 15.7904H756.521C756.657 16.8988 756.728 18.0141 756.734 19.1306V26.7351C756.734 27.0255 756.64 27.1179 756.347 27.1179H755.828C755.534 27.1179 755.441 27.0255 755.441 26.7351V14.2194C755.441 13.9289 755.534 13.8365 755.828 13.8365H756.307C756.417 13.8264 756.527 13.8501 756.622 13.9045C756.718 13.9589 756.794 14.0412 756.84 14.1402L761.505 22.3519L766.142 14.2194C766.289 13.9421 766.369 13.9025 766.662 13.9025L767.209 13.8365Z" fill="#394149"/>
<path fill-rule="evenodd" clip-rule="evenodd" d="M338.004 8.14607C339.089 9.42924 339.983 10.8609 340.659 12.3972C341.642 14.6371 342.148 17.0556 342.145 19.5C342.141 24.2388 340.249 28.7829 336.884 32.1362C333.518 35.4896 328.953 37.3785 324.19 37.389C321.882 37.3877 319.597 36.9393 317.462 36.0688C315.939 35.4667 314.509 34.6533 313.215 33.6528C311.199 32.1239 309.531 30.1875 308.321 27.9711C307.111 25.7546 306.386 23.3084 306.195 20.7933C306.003 18.2782 306.35 15.7514 307.211 13.379C308.072 11.0067 309.428 8.84262 311.19 7.02933C312.953 5.21604 315.081 3.7946 317.435 2.85857C319.79 1.92254 322.316 1.49314 324.849 1.59864C327.383 1.70414 329.864 2.34213 332.132 3.47064C334.399 4.59915 336.401 6.19259 338.004 8.14607ZM330.175 6.5486C328.296 5.67875 326.249 5.22815 324.177 5.22837L324.19 5.20197C321.772 5.20018 319.393 5.80687 317.275 6.96559C315.156 8.12431 313.367 9.7974 312.073 11.8292C310.779 13.8609 310.022 16.1853 309.874 18.586C309.726 20.9867 310.19 23.3857 311.225 25.5598C311.824 24.9333 312.193 24.1239 312.273 23.2626C312.508 21.6474 313.262 20.1512 314.422 18.9972C315.582 17.8432 317.086 17.0933 318.709 16.8595C319.622 16.7772 320.478 16.3842 321.133 15.7468C321.788 15.1095 322.202 14.2668 322.305 13.3609C322.541 11.7458 323.294 10.2495 324.454 9.09553C325.614 7.94153 327.118 7.19167 328.742 6.95787C329.235 6.88308 329.717 6.74553 330.175 6.5486ZM313.361 28.5992C313.308 28.6462 313.255 28.6931 313.202 28.7415C314.231 29.9392 315.45 30.9606 316.812 31.7648C317.168 31.2209 317.39 30.6014 317.462 29.9561C317.705 28.3377 318.467 26.8405 319.633 25.687C320.8 24.5334 322.31 23.7851 323.938 23.5531C324.852 23.4634 325.706 23.0622 326.357 22.4173C327.007 21.7725 327.414 20.9237 327.508 20.0149C327.738 18.398 328.491 16.8995 329.652 15.7448C330.812 14.59 332.318 13.8415 333.944 13.6118C334.859 13.5257 335.712 13.113 336.346 12.45C336.41 12.3949 336.468 12.333 336.518 12.2652C335.697 10.8695 334.637 9.62745 333.386 8.59494C332.288 9.61906 330.897 10.2787 329.405 10.4829C328.489 10.545 327.627 10.9342 326.977 11.5786C326.291 12.2478 325.88 13.1464 325.822 14.1003C325.587 15.7154 324.833 17.2117 323.673 18.3657C322.513 19.5197 321.01 20.2695 319.386 20.5033C318.473 20.5777 317.619 20.9815 316.984 21.6387C316.325 22.2778 315.915 23.1296 315.83 24.0415C315.618 25.6639 314.86 27.1671 313.68 28.3059C313.574 28.4115 313.467 28.5054 313.361 28.5992ZM320.195 33.2831C321.49 33.6524 322.83 33.839 324.177 33.8376V33.7716C326.37 33.7631 328.532 33.255 330.497 32.2862C332.462 31.3174 334.177 29.9137 335.512 28.1828C336.847 26.4518 337.766 24.4397 338.198 22.3006C338.63 20.1616 338.564 17.9526 338.004 15.843C336.997 16.5516 335.831 17.0048 334.607 17.1632C333.696 17.2557 332.844 17.6582 332.196 18.3028C331.548 18.9473 331.144 19.7945 331.051 20.7014C330.815 22.3185 330.059 23.8161 328.897 24.9704C327.734 26.1246 326.227 26.8733 324.601 27.1045C323.69 27.197 322.838 27.5995 322.19 28.244C321.542 28.8886 321.138 29.7358 321.045 30.6426C320.926 31.567 320.638 32.4619 320.195 33.2831ZM355.774 11.6714H351.792V27.6857H355.774V11.6714ZM363.563 15.3152C359.795 15.3152 357.353 17.6784 357.353 21.6391C357.353 25.6658 359.741 27.9762 363.563 27.9762C367.385 27.9762 369.774 25.5998 369.774 21.6391C369.774 17.6784 367.332 15.3152 363.563 15.3152ZM363.563 18.1801C364.917 18.1801 365.779 19.4607 365.779 21.6391V21.6523C365.779 23.8571 364.93 25.0717 363.563 25.0717C362.196 25.0717 361.36 23.7778 361.36 21.6391C361.36 19.5003 362.21 18.1801 363.563 18.1801ZM375.095 28.4646H371.273V28.4778C371.499 30.6694 373.689 32.2405 377.205 32.2405C380.987 32.2405 383.549 30.445 383.549 27.5537V15.5397H379.567V17.7444C379.268 17.0319 378.756 16.4275 378.102 16.0122C377.447 15.5969 376.681 15.3906 375.905 15.4208C372.853 15.4208 371.021 17.8104 371.021 21.5995C371.021 25.3885 372.946 27.5933 375.852 27.5933C376.604 27.6339 377.351 27.4494 377.997 27.0635C378.643 26.6775 379.157 26.1079 379.475 25.4281H379.554V27.6461C379.554 28.8343 378.758 29.6528 377.245 29.6528C376.806 29.7116 376.359 29.6277 375.972 29.4136C375.585 29.1995 375.277 28.8667 375.095 28.4646ZM377.272 18.4838C378.678 18.4838 379.567 19.6984 379.567 21.6259V21.6391C379.567 23.593 378.692 24.6624 377.272 24.6624C375.852 24.6624 375.002 23.5666 375.002 21.6259C375.002 19.6852 375.865 18.4838 377.272 18.4838ZM391.259 15.302C387.49 15.302 385.048 17.6652 385.048 21.6259V21.6391C385.048 25.6658 387.424 27.963 391.259 27.963C395.094 27.963 397.483 25.5866 397.483 21.6259C397.483 17.6652 395.028 15.302 391.259 15.302ZM391.259 18.1669C392.612 18.1669 393.475 19.4475 393.475 21.6259V21.6523C393.475 23.8571 392.665 25.0849 391.312 25.0849C389.958 25.0849 389.122 23.8043 389.122 21.6523C389.122 19.5003 389.905 18.1669 391.259 18.1669ZM399.309 11.5296C399.094 11.8677 398.985 12.2617 398.995 12.6616V12.688C398.993 12.9537 399.046 13.2171 399.15 13.4616C399.255 13.706 399.41 13.9263 399.604 14.1086C399.798 14.2908 400.029 14.4311 400.28 14.5206C400.532 14.6101 400.799 14.6469 401.066 14.6287C401.468 14.6207 401.858 14.4942 402.188 14.2651C402.517 14.036 402.771 13.7147 402.917 13.342C403.063 12.9692 403.094 12.5617 403.007 12.1712C402.92 11.7807 402.718 11.4248 402.427 11.1485C402.137 10.8722 401.77 10.688 401.374 10.6193C400.978 10.5505 400.57 10.6004 400.202 10.7624C399.835 10.9245 399.524 11.1915 399.309 11.5296ZM402.977 15.5661H398.995V27.6857H402.977V15.5661ZM412.637 27.8441C415.663 27.8441 417.428 25.5866 417.428 21.6259L417.481 21.6523C417.481 17.6916 415.663 15.4208 412.611 15.368C411.829 15.3333 411.056 15.539 410.396 15.9571C409.735 16.3752 409.221 16.9855 408.922 17.7048H408.842V15.5397H404.861V31.5672H408.842V25.5998H408.922C409.235 26.3074 409.76 26.9022 410.425 27.3036C411.089 27.705 411.862 27.8937 412.637 27.8441ZM411.164 18.4706C412.558 18.4706 413.447 19.6984 413.447 21.6259V21.6523C413.447 23.5666 412.558 24.768 411.164 24.768C409.771 24.768 408.855 23.5402 408.869 21.6259C408.882 19.7116 409.771 18.4706 411.164 18.4706ZM429.663 19.3419C429.57 16.8467 427.567 15.2888 424.262 15.2888V15.3152C420.971 15.3152 418.835 16.8599 418.808 19.2363C418.808 21.0846 420.056 22.3388 422.431 22.8273L424.727 23.3158C425.682 23.5138 426.054 23.6458 426.054 24.2795C426.054 24.9132 425.523 25.2961 424.355 25.2961C423.187 25.2961 422.471 24.768 422.351 23.8703H418.516C418.689 26.3391 420.905 27.9498 424.289 27.9498C427.673 27.9498 429.969 26.3391 429.969 23.8307C429.969 21.9956 428.933 21.0186 426.505 20.5037L423.957 19.9888C423.068 19.804 422.63 19.6059 422.63 18.9854C422.63 18.3649 423.121 17.9425 424.222 17.9425C425.324 17.9425 426.041 18.4838 426.041 19.3419H429.663ZM439.417 27.6593H443.252L443.305 15.5397H439.324V22.3784C439.362 22.6639 439.338 22.954 439.254 23.2295C439.17 23.505 439.028 23.7594 438.837 23.9757C438.646 24.192 438.41 24.3652 438.146 24.4836C437.883 24.602 437.597 24.663 437.307 24.6624C436.073 24.6624 435.33 23.8967 435.33 22.4576V15.5397H431.349V23.3686C431.298 23.9692 431.378 24.5736 431.583 25.1409C431.787 25.7082 432.112 26.2252 432.535 26.657C432.957 27.0888 433.468 27.4253 434.033 27.6437C434.598 27.8622 435.203 27.9576 435.808 27.9233C436.597 27.9669 437.377 27.7405 438.02 27.2818C438.662 26.8231 439.127 26.1597 439.337 25.4017H439.417V27.6593ZM449.025 15.5397H445.176L445.11 27.6857H449.091V20.5433C449.061 20.295 449.084 20.0432 449.159 19.8044C449.234 19.5657 449.359 19.3455 449.526 19.1584C449.693 18.9713 449.898 18.8214 450.127 18.7188C450.356 18.6162 450.605 18.5631 450.856 18.563C451.944 18.563 452.542 19.2231 452.542 20.4377V27.6857H456.324V20.5169C456.291 20.2717 456.312 20.0224 456.385 19.786C456.458 19.5495 456.581 19.3313 456.746 19.1461C456.91 18.9609 457.113 18.813 457.34 18.7124C457.567 18.6119 457.813 18.5609 458.062 18.563C459.177 18.563 459.774 19.1703 459.774 20.4905V27.6857H463.755V19.4343C463.794 18.8968 463.72 18.3571 463.536 17.8502C463.352 17.3433 463.063 16.8806 462.687 16.4921C462.312 16.1036 461.858 15.7981 461.356 15.5953C460.855 15.3926 460.315 15.2971 459.774 15.3152C458.944 15.2798 458.126 15.52 457.448 15.998C456.771 16.4761 456.272 17.1648 456.032 17.9557H455.952C455.825 17.1731 455.406 16.467 454.779 15.9777C454.152 15.4885 453.362 15.2519 452.568 15.3152C451.787 15.3009 451.024 15.5445 450.397 16.0079C449.77 16.4714 449.316 17.1285 449.105 17.8765H449.025V15.5397Z" fill="#394149"/>
<path fill-rule="evenodd" clip-rule="evenodd" d="M37.0453 5.68131C38.5361 7.85036 39.3337 10.4168 39.3336 13.0444C39.3323 14.8763 38.9429 16.6873 38.1906 18.3594C37.4383 20.0314 36.3401 21.5268 34.9676 22.7481V39H0V4.22535H16.5615C18.3471 2.28919 20.6789 0.934692 23.2515 0.339283C25.824 -0.256127 28.5173 -0.064692 30.9786 0.888516C33.4399 1.84172 35.5545 3.51226 37.0453 5.68131ZM31.534 16.5834C32.2352 15.5352 32.6081 14.3036 32.6055 13.0444C32.602 11.359 31.9265 9.74384 30.7273 8.55331C29.5282 7.36278 27.9032 6.69416 26.2091 6.69416C24.9435 6.69416 23.7063 7.06771 22.6541 7.76752C21.602 8.46733 20.7821 9.46196 20.2984 10.6255C19.8147 11.789 19.6888 13.0692 19.9367 14.3039C20.1845 15.5387 20.7951 16.6725 21.6909 17.562C22.5868 18.4514 23.7278 19.0564 24.9694 19.3004C26.211 19.5445 27.4976 19.4166 28.6661 18.9329C29.8347 18.4493 30.8327 17.6316 31.534 16.5834ZM6.72811 32.3065H28.2395V25.9298C27.5683 26.0405 26.8894 26.0979 26.2091 26.1014C22.7294 26.0979 19.3932 24.7212 16.9326 22.2733C14.472 19.8254 13.0882 16.5063 13.0847 13.0444C13.0905 12.3316 13.1571 11.6205 13.2837 10.9189H6.72811V32.3065ZM52.0201 11.9223H47.7603V29.0852H52.0201V11.9223ZM60.354 15.8302C56.3728 15.8302 53.7187 18.3782 53.7187 22.6293C53.7187 26.9728 56.2799 29.4549 60.354 29.4549C64.428 29.4549 66.9892 26.8804 66.9892 22.6293C66.9892 18.3782 64.3351 15.8302 60.354 15.8302ZM60.3938 18.9195C61.8535 18.9195 62.7692 20.2925 62.7692 22.6293L62.7957 22.6425C62.7957 25.0189 61.8535 26.3259 60.3938 26.3259C58.934 26.3259 58.0316 25.0189 58.0316 22.6293C58.0316 20.2397 58.934 18.9195 60.3938 18.9195ZM72.8016 29.9698H68.6878L68.7143 29.983C68.9532 32.3462 71.3153 34.0228 75.0045 34.036C79.0653 34.036 81.8255 32.0953 81.8255 28.9928V16.1338H77.6055V18.2632C77.2733 17.6021 76.7648 17.0421 76.1331 16.6462C75.4201 16.1993 74.5853 15.9834 73.7438 16.0282C70.4129 16.0282 68.4356 18.563 68.4356 22.6293C68.4356 26.6956 70.5058 29.0588 73.6244 29.0588C74.4449 29.1186 75.2643 28.9299 75.9749 28.5175C76.6767 28.1103 77.2398 27.5038 77.5922 26.7761V29.1248C77.5922 30.4186 76.7429 31.29 75.1107 31.29C74.6337 31.3508 74.1498 31.2547 73.7329 31.0163C73.316 30.7779 72.9889 30.4104 72.8016 29.9698ZM75.1372 19.2495C76.65 19.2495 77.6055 20.5566 77.6055 22.6293C77.6055 24.7813 76.6633 25.9035 75.1372 25.9035C73.6111 25.9035 72.6955 24.6889 72.6955 22.6293C72.6955 20.5698 73.6244 19.2495 75.1372 19.2495ZM90.1461 15.8302C86.1649 15.8302 83.5109 18.3782 83.5109 22.6293H83.5374C83.5374 26.9728 86.0853 29.4549 90.1461 29.4549C94.2068 29.4549 96.7813 26.8804 96.7813 22.6293C96.7813 18.3782 94.1272 15.8302 90.1461 15.8302ZM90.1859 18.9195C91.6324 18.9195 92.5613 20.2925 92.5613 22.6293L92.5878 22.6425C92.5878 25.0189 91.6456 26.3259 90.1859 26.3259C88.7262 26.3259 87.8238 25.0189 87.8238 22.6293C87.8238 20.2397 88.7394 18.9195 90.1859 18.9195ZM98.8272 11.7779C98.5996 12.1459 98.4879 12.5732 98.5065 13.0049L98.533 13.0181C98.5364 13.2943 98.595 13.5671 98.7052 13.8206C98.8154 14.0741 98.9752 14.3033 99.1752 14.4949C99.3752 14.6865 99.6114 14.8367 99.8702 14.9367C100.129 15.0368 100.405 15.0847 100.683 15.0776C101.117 15.0773 101.541 14.9476 101.901 14.7053C102.261 14.4631 102.539 14.1193 102.701 13.7183C102.862 13.3172 102.9 12.8773 102.808 12.4549C102.716 12.0326 102.5 11.6473 102.186 11.3485C101.872 11.0497 101.476 10.8511 101.048 10.7783C100.619 10.7055 100.179 10.7617 99.7836 10.9399C99.3879 11.118 99.0548 11.4099 98.8272 11.7779ZM102.819 16.1206H98.5065L98.5728 29.138H102.819V16.1206ZM113.17 29.3228C116.422 29.3228 118.332 26.8672 118.332 22.6293L118.412 22.6425C118.412 18.3914 116.488 15.949 113.144 15.9754C112.301 15.9355 111.467 16.155 110.755 16.6038C110.042 17.0527 109.486 17.7092 109.163 18.4838H109.083V16.1602H104.85V33.3231H109.11V26.9068H109.189C109.524 27.6665 110.086 28.3055 110.798 28.7376C111.51 29.1696 112.338 29.3739 113.17 29.3228ZM111.525 19.2363C113.024 19.2363 113.993 20.5698 113.993 22.6293L114.073 22.6425C114.073 24.7813 113.024 26.0091 111.525 26.0091C110.025 26.0091 109.056 24.7021 109.07 22.6293C109.083 20.5566 110.025 19.2363 111.525 19.2363ZM131.417 20.1869C131.391 17.4937 129.174 15.817 125.605 15.817L125.684 15.8302C122.088 15.8302 119.859 17.4804 119.779 20.0681C119.779 22.0616 121.119 23.395 123.68 23.9363L126.149 24.4512C127.171 24.6625 127.569 24.7813 127.569 25.481C127.569 26.1807 126.985 26.5768 125.737 26.5768C124.49 26.5768 123.72 26.0091 123.601 25.0453H119.474C119.646 27.699 122.022 29.4417 125.671 29.4417C129.32 29.4417 131.775 27.6462 131.775 25.0057C131.775 23.0386 130.714 21.9824 128.06 21.4279L125.326 20.8734C124.344 20.6754 123.853 20.4642 123.853 19.7908C123.853 19.1175 124.41 18.6686 125.578 18.6686C126.746 18.6686 127.529 19.2495 127.529 20.1869H131.417ZM141.914 29.1248H146.041L146.121 16.1338H141.874V23.4611C141.92 23.7675 141.899 24.08 141.813 24.3777C141.726 24.6753 141.577 24.9511 141.374 25.1863C141.172 25.4216 140.921 25.6109 140.639 25.7414C140.356 25.872 140.049 25.9407 139.738 25.9431C138.411 25.9431 137.601 25.1113 137.601 23.5799V16.1338H133.341V24.4908C133.289 25.1271 133.372 25.7673 133.585 26.3694C133.799 26.9715 134.138 27.5218 134.58 27.9844C135.023 28.4469 135.558 28.8111 136.152 29.0532C136.746 29.2952 137.384 29.4096 138.026 29.3889C138.875 29.4357 139.716 29.1931 140.408 28.7011C141.1 28.2091 141.603 27.4971 141.834 26.6824H141.914V29.1248ZM152.238 16.1206H148.098L148.125 29.138H152.384V21.4543C152.35 21.1872 152.374 20.9159 152.454 20.6587C152.534 20.4015 152.668 20.1642 152.848 19.9629C153.028 19.7616 153.249 19.6008 153.496 19.4915C153.743 19.3821 154.011 19.3266 154.282 19.3288C155.45 19.3288 156.1 20.0285 156.1 21.3487V29.138H160.161V21.4279C160.125 21.1639 160.146 20.8952 160.224 20.6402C160.302 20.3851 160.434 20.1499 160.612 19.9505C160.789 19.7511 161.008 19.5923 161.253 19.485C161.499 19.3777 161.764 19.3244 162.032 19.3288C163.24 19.3288 163.863 20.0681 163.863 21.3883V29.138H168.15V20.3057C168.193 19.7274 168.113 19.1464 167.915 18.6009C167.717 18.0554 167.406 17.5576 167.001 17.1401C166.597 16.7225 166.108 16.3948 165.567 16.1781C165.027 15.9615 164.446 15.8609 163.863 15.883C162.987 15.8422 162.121 16.0905 161.401 16.5895C160.682 17.0885 160.147 17.8101 159.882 18.6422H159.696C159.544 17.8146 159.087 17.0731 158.415 16.5628C157.743 16.0525 156.903 15.8101 156.06 15.883C155.221 15.866 154.4 16.1263 153.725 16.6232C153.05 17.1201 152.56 17.8255 152.331 18.629H152.238V16.1206Z" fill="#394149"/>
</g>
</svg>
